<svg width="91" height="98" viewBox="0 0 91 98" fill="none" xmlns="http://www.w3.org/2000/svg">
<path d="M4.576 97.328C1.52533 95.6853 0 92.928 0 89.056C0 86.3573 0.586667 83.424 1.76 80.256C2.93333 77.088 4.34133 73.9787 5.984 70.928C7.62667 67.76 9.152 65.0613 10.56 62.832C15.0187 55.5573 19.4773 48.3413 23.936 41.184C28.3947 34.0267 32.3253 27.0453 35.728 20.24C39.248 13.4347 41.712 7.04 43.12 1.056C43.824 0.821336 44.352 0.704002 44.704 0.704002C46.816 0.704002 48.928 1.76 51.04 3.87199C53.152 5.98399 54.4427 8.03733 54.912 10.032C55.264 12.848 55.088 16.3093 54.384 20.416C53.68 24.5227 52.8 29.04 51.744 33.968C50.688 38.7787 49.6907 43.648 48.752 48.576C47.9307 53.6213 46.9333 58.7253 45.76 63.888C44.704 69.0507 44.0587 74.3893 43.824 79.904C45.232 75.7973 47.2267 71.3973 49.808 66.704C52.3893 61.8933 54.9707 57.376 57.552 53.152C60.1333 48.928 62.0693 45.76 63.36 43.648C65.5893 40.2453 67.8773 36.432 70.224 32.208C72.688 27.984 75.0347 23.8187 77.264 19.712C79.4933 15.3707 81.3707 11.44 82.896 7.92C84.4213 4.28267 85.3013 1.64267 85.536 0C87.4133 0.938662 88.7627 2.22933 89.584 3.87199C90.5227 5.51467 90.992 8.03734 90.992 11.44C90.992 13.904 90.288 16.544 88.88 19.36C87.5893 22.0587 86.0053 24.6987 84.128 27.28C82.368 29.8613 80.8427 32.2667 79.552 34.496C75.2107 41.6533 70.752 48.9867 66.176 56.496C61.6 63.888 57.4933 71.0453 53.856 77.968C50.336 84.8907 47.872 91.344 46.464 97.328C46.464 97.2107 46.4053 97.152 46.288 97.152C46.288 97.152 46.288 97.0933 46.288 96.976C43.12 96.7413 40.656 95.04 38.896 91.872C37.2533 88.704 36.432 84.4213 36.432 79.024C36.432 77.3813 36.4907 75.68 36.608 73.92C36.7253 72.16 36.96 70.3413 37.312 68.464C38.1333 63.4187 39.072 57.7867 40.128 51.568C41.3013 45.3493 42.416 39.1893 43.472 33.088C44.6453 26.9867 45.584 21.7067 46.288 17.248C46.0533 18.4213 45.1147 20.6507 43.472 23.936C41.8293 27.2213 39.8933 30.8587 37.664 34.848C35.4347 38.8373 33.3227 42.592 31.328 46.112C29.3333 49.632 27.808 52.2133 26.752 53.856C24.64 57.2587 22.352 61.1307 19.888 65.472C17.424 69.696 15.0773 73.9787 12.848 78.32C10.6187 82.544 8.74133 86.3573 7.216 89.76C5.69067 93.1627 4.81067 95.6853 4.576 97.328Z" fill="white"/>
</svg>
