<svg width="1023" height="296" viewBox="0 0 1023 296" fill="none" xmlns="http://www.w3.org/2000/svg">
<path d="M825.5 291L825.634 290.009L825.5 291ZM0.59932 259.566C0.359362 260.063 0.568085 260.661 1.06552 260.901L9.17164 264.811C9.66907 265.051 10.2668 264.842 10.5068 264.345C10.7468 263.847 10.538 263.25 10.0406 263.01L2.83516 259.534L6.31103 252.328C6.55099 251.831 6.34226 251.233 5.84483 250.993C5.3474 250.753 4.74963 250.962 4.50967 251.459L0.59932 259.566ZM977.105 0.946677C990.951 28.6804 1004.28 62.8093 1012.5 97.855C1020.72 132.911 1023.82 168.815 1017.28 200.133C1010.75 231.419 994.606 258.109 964.311 274.88C933.977 291.672 889.322 298.594 825.634 290.009L825.366 291.991C889.278 300.606 934.423 293.711 965.28 276.63C996.176 259.526 1012.61 232.285 1019.24 200.542C1025.86 168.831 1022.71 132.608 1014.45 97.3982C1006.18 62.1782 992.799 27.9029 978.895 0.053323L977.105 0.946677ZM825.634 290.009C666.184 268.516 512.741 242.381 372.895 230.816C233.043 219.25 106.623 222.235 1.17035 259.056L1.82965 260.944C106.877 224.265 232.957 221.25 372.73 232.809C512.509 244.369 665.816 270.484 825.366 291.991L825.634 290.009Z" fill="white"/>
</svg>
