<svg width="670" height="297" viewBox="0 0 670 297" fill="none" xmlns="http://www.w3.org/2000/svg">
<path d="M540.474 292.287L540.676 291.307L540.474 292.287ZM0.0430013 260.913C-0.117212 261.441 0.181372 262 0.709908 262.16L9.3229 264.771C9.85143 264.931 10.4098 264.632 10.57 264.104C10.7302 263.575 10.4316 263.017 9.90308 262.857L2.24709 260.536L4.56783 252.88C4.72804 252.351 4.42946 251.793 3.90092 251.633C3.37239 251.473 2.81404 251.771 2.65383 252.3L0.0430013 260.913ZM639.365 1.30993C657.516 56.9922 674.272 138.266 665.685 201.244C661.392 232.729 650.786 259.482 631.024 276.237C611.299 292.961 582.25 299.89 540.676 291.307L540.272 293.266C582.238 301.93 611.981 295.005 632.317 277.763C652.617 260.552 663.342 233.228 667.666 201.514C676.314 138.092 659.451 56.4756 641.266 0.690074L639.365 1.30993ZM540.676 291.307C436.326 269.765 335.81 243.547 244.224 231.947C152.62 220.344 69.711 223.324 0.528426 260.321L1.47157 262.085C70.1036 225.382 152.507 222.346 243.973 233.931C335.458 245.519 435.772 271.693 540.272 293.266L540.676 291.307Z" fill="white"/>
</svg>
